<svg id="svg" version="1.1" width="400" height="400" xmlns="http://www.w3.org/2000/svg" xmlns:xlink="http://www.w3.org/1999/xlink" style="display: block;"><g id="svgg"><path id="path0" d="M137.539 184.000 C 137.539 184.321,137.573 184.452,137.615 184.292 C 137.657 184.131,137.657 183.869,137.615 183.708 C 137.573 183.548,137.539 183.679,137.539 184.000 " stroke="none" fill="#000000" fill-rule="evenodd"></path><path id="path1" d="" stroke="none" fill="#060606" fill-rule="evenodd"></path><path id="path2" d="M180.582 158.417 C 180.582 176.475,180.601 183.887,180.625 174.888 C 180.649 165.889,180.649 151.114,180.625 142.055 C 180.601 132.996,180.582 140.358,180.582 158.417 M180.580 222.917 C 180.580 232.908,180.600 237.020,180.625 232.054 C 180.649 227.089,180.649 218.914,180.625 213.888 C 180.600 208.862,180.580 212.925,180.580 222.917 " stroke="none" fill="#070707" fill-rule="evenodd"></path><path id="path3" d="M180.582 158.417 C 180.582 176.475,180.601 183.887,180.625 174.888 C 180.649 165.889,180.649 151.114,180.625 142.055 C 180.601 132.996,180.582 140.358,180.582 158.417 M180.580 222.917 C 180.580 232.908,180.600 237.020,180.625 232.054 C 180.649 227.089,180.649 218.914,180.625 213.888 C 180.600 208.862,180.580 212.925,180.580 222.917 " stroke="none" fill="#070707" fill-rule="evenodd"></path><path id="path4" d="M190.810 7.083 C 190.751 7.175,190.627 7.513,190.535 7.833 C 190.442 8.154,189.906 9.654,189.343 11.167 C 188.780 12.679,188.144 14.442,187.928 15.083 C 187.713 15.725,187.346 16.737,187.113 17.333 C 186.526 18.831,185.565 21.445,184.906 23.333 C 184.602 24.204,183.893 26.154,183.331 27.667 C 182.769 29.179,182.136 30.904,181.923 31.500 C 181.711 32.096,181.224 33.446,180.840 34.500 C 180.457 35.554,179.968 36.904,179.753 37.500 C 179.539 38.096,179.142 39.183,178.872 39.917 C 178.602 40.650,177.837 42.750,177.173 44.583 C 176.509 46.417,175.290 49.754,174.464 52.000 C 173.639 54.246,172.792 56.571,172.583 57.167 C 172.374 57.762,171.793 59.375,171.293 60.750 C 170.792 62.125,169.730 65.050,168.933 67.250 C 168.137 69.450,167.342 71.625,167.168 72.083 C 166.575 73.645,164.788 78.580,164.391 79.750 C 164.174 80.392,163.924 81.067,163.836 81.250 C 163.748 81.433,163.180 82.971,162.574 84.667 C 161.968 86.362,161.062 88.875,160.560 90.250 C 160.058 91.625,159.007 94.513,158.224 96.667 C 157.442 98.821,156.424 101.596,155.963 102.833 C 155.501 104.071,154.805 105.983,154.416 107.083 C 154.027 108.183,153.094 110.771,152.341 112.833 C 151.589 114.896,150.673 117.408,150.307 118.417 C 148.897 122.293,149.209 121.841,147.110 123.043 C 146.087 123.628,143.450 125.148,141.250 126.420 C 137.083 128.829,131.099 132.280,126.250 135.071 C 124.692 135.968,123.325 136.788,123.213 136.894 C 123.053 137.045,123.115 138.261,123.502 142.585 C 123.774 145.609,124.032 148.496,124.077 149.000 C 124.121 149.504,124.381 152.392,124.654 155.417 C 124.926 158.442,125.231 161.929,125.331 163.167 C 125.431 164.404,125.660 167.029,125.840 169.000 C 126.020 170.971,126.315 174.233,126.495 176.250 C 126.676 178.267,126.874 180.450,126.934 181.102 L 127.044 182.287 124.868 188.269 C 123.671 191.558,122.544 194.662,122.364 195.167 C 122.184 195.671,121.462 197.658,120.760 199.583 C 120.059 201.508,119.200 203.871,118.853 204.833 C 117.898 207.482,114.708 216.242,112.358 222.667 C 111.906 223.904,111.182 225.892,110.749 227.083 C 110.317 228.275,109.700 229.963,109.378 230.833 C 109.056 231.704,108.471 233.317,108.079 234.417 C 107.686 235.517,107.127 237.054,106.837 237.833 C 106.546 238.612,106.135 239.737,105.923 240.333 C 105.712 240.929,105.183 242.392,104.749 243.583 C 104.314 244.775,103.674 246.537,103.326 247.500 C 102.978 248.463,102.432 249.963,102.112 250.833 C 101.428 252.692,100.787 254.454,99.259 258.667 C 98.643 260.362,97.874 262.462,97.550 263.333 C 96.843 265.229,95.598 268.665,95.074 270.167 C 94.866 270.762,94.344 272.188,93.915 273.333 C 93.485 274.479,93.035 275.717,92.914 276.083 C 92.793 276.450,92.426 277.462,92.098 278.333 C 91.770 279.204,91.501 279.980,91.501 280.057 C 91.500 280.169,92.986 279.040,93.333 278.665 C 93.379 278.615,93.867 278.195,94.417 277.732 C 94.967 277.269,96.879 275.651,98.667 274.138 C 102.363 271.007,103.790 269.804,106.484 267.543 C 107.530 266.666,108.507 265.828,108.655 265.682 C 108.804 265.536,109.514 264.929,110.233 264.333 C 110.952 263.737,112.637 262.320,113.978 261.183 C 115.319 260.046,116.826 258.771,117.326 258.350 C 117.826 257.928,118.764 257.132,119.409 256.580 C 120.055 256.028,121.520 254.790,122.664 253.830 C 124.357 252.408,127.332 249.882,130.000 247.600 C 130.229 247.404,130.904 246.839,131.500 246.344 L 132.583 245.445 132.783 247.431 C 132.893 248.523,133.101 250.804,133.245 252.500 C 133.390 254.196,133.614 256.783,133.744 258.250 C 133.874 259.717,134.172 263.129,134.405 265.833 C 134.638 268.537,134.945 271.950,135.087 273.417 C 135.229 274.883,135.452 277.358,135.583 278.917 C 135.714 280.475,135.900 282.650,135.998 283.750 C 136.095 284.850,136.398 288.300,136.671 291.417 C 137.172 297.126,137.638 302.333,138.090 307.250 C 138.225 308.717,138.371 310.367,138.416 310.917 C 138.542 312.466,139.302 321.163,139.676 325.333 C 139.861 327.396,140.048 329.496,140.092 330.000 C 140.136 330.504,140.317 332.492,140.494 334.417 C 140.671 336.342,140.868 338.685,140.932 339.625 C 141.071 341.678,140.809 341.657,143.890 339.859 C 145.280 339.049,147.692 337.652,149.250 336.756 C 150.808 335.860,152.608 334.818,153.250 334.441 C 153.892 334.064,154.567 333.674,154.750 333.575 C 154.933 333.475,155.833 332.958,156.750 332.426 C 157.667 331.893,158.642 331.327,158.917 331.169 C 159.192 331.010,160.617 330.187,162.083 329.340 C 164.638 327.864,167.848 326.011,172.333 323.424 C 173.479 322.763,175.879 321.377,177.667 320.343 C 179.454 319.309,182.904 317.319,185.333 315.921 C 187.762 314.523,190.688 312.833,191.833 312.167 C 193.911 310.958,196.193 309.643,202.667 305.920 C 204.546 304.839,206.704 303.590,207.463 303.144 C 208.223 302.698,208.879 302.333,208.922 302.333 C 208.965 302.333,209.000 322.746,209.000 347.694 C 209.000 372.643,209.034 393.021,209.077 392.979 C 209.119 392.937,209.447 392.081,209.807 391.076 C 210.166 390.072,210.776 388.387,211.162 387.333 C 211.548 386.279,212.149 384.629,212.497 383.667 C 212.846 382.704,213.787 380.117,214.589 377.917 C 215.391 375.717,216.215 373.429,216.421 372.833 C 216.627 372.238,217.024 371.150,217.303 370.417 C 217.582 369.683,218.420 367.396,219.166 365.333 C 219.912 363.271,220.973 360.346,221.523 358.833 C 222.073 357.321,222.849 355.183,223.248 354.083 C 223.646 352.983,224.685 350.133,225.556 347.750 C 226.924 344.007,228.531 339.605,230.361 334.583 C 230.629 333.850,231.024 332.762,231.240 332.167 C 231.456 331.571,232.207 329.508,232.908 327.583 C 233.609 325.658,234.509 323.183,234.909 322.083 C 235.830 319.550,236.803 316.883,237.585 314.750 C 237.921 313.833,238.519 312.183,238.915 311.083 C 239.538 309.350,241.536 303.878,243.448 298.667 C 243.768 297.796,244.130 296.783,244.252 296.417 C 244.375 296.050,244.736 295.037,245.054 294.167 C 245.372 293.296,246.809 289.359,248.246 285.417 C 251.008 277.847,250.957 277.965,251.643 277.617 C 251.885 277.493,253.283 276.695,254.750 275.842 C 256.217 274.990,257.642 274.162,257.917 274.004 C 258.192 273.846,260.142 272.721,262.250 271.505 C 264.358 270.289,266.346 269.145,266.667 268.962 C 266.987 268.779,268.450 267.933,269.917 267.083 C 271.383 266.232,273.558 264.975,274.750 264.289 L 276.917 263.041 276.866 262.229 C 276.839 261.782,276.670 259.842,276.492 257.917 C 276.157 254.301,275.873 251.201,275.743 249.750 C 275.702 249.292,275.517 247.117,275.333 244.917 C 275.148 242.717,274.922 240.129,274.831 239.167 C 274.740 238.204,274.512 235.654,274.324 233.500 C 274.136 231.346,273.955 229.321,273.922 229.000 C 273.888 228.679,273.810 227.779,273.747 227.000 C 273.684 226.221,273.604 225.358,273.570 225.083 C 273.536 224.808,273.381 222.995,273.226 221.054 L 272.943 217.524 273.403 216.304 C 273.850 215.118,275.111 211.660,276.584 207.583 C 276.982 206.483,277.732 204.421,278.252 203.000 C 278.772 201.579,279.482 199.629,279.828 198.667 C 281.254 194.710,283.193 189.363,283.485 188.583 C 283.657 188.125,284.150 186.775,284.581 185.583 C 285.012 184.392,285.727 182.442,286.169 181.250 C 286.612 180.058,287.197 178.446,287.470 177.667 C 287.742 176.887,288.046 176.063,288.146 175.833 C 288.245 175.604,288.819 174.029,289.422 172.333 C 290.024 170.637,290.937 168.125,291.451 166.750 C 291.965 165.375,292.482 163.950,292.601 163.583 C 292.824 162.894,293.582 160.801,294.502 158.333 C 294.792 157.554,295.393 155.904,295.838 154.667 C 297.243 150.758,297.934 148.858,299.415 144.833 C 300.209 142.679,301.793 138.329,302.936 135.167 C 304.079 132.004,305.509 128.067,306.113 126.417 C 306.718 124.767,307.459 122.742,307.761 121.917 C 308.063 121.092,308.367 120.269,308.437 120.088 C 308.598 119.673,309.210 119.179,301.595 125.604 C 297.661 128.923,295.379 130.842,291.818 133.824 C 287.692 137.281,287.472 137.467,286.583 138.256 C 286.308 138.501,285.749 138.974,285.340 139.309 C 284.932 139.643,284.294 140.182,283.924 140.506 C 283.553 140.830,282.575 141.652,281.750 142.332 C 280.925 143.013,280.212 143.612,280.167 143.664 C 280.121 143.716,278.696 144.915,277.000 146.330 C 275.304 147.744,273.081 149.617,272.060 150.492 C 268.966 153.143,267.475 154.364,267.411 154.300 C 267.348 154.237,266.977 150.593,266.667 147.000 C 266.568 145.854,266.418 144.129,266.333 143.167 C 266.248 142.204,266.137 140.892,266.086 140.250 C 266.035 139.608,265.848 137.546,265.671 135.667 C 265.493 133.787,265.304 131.650,265.251 130.917 C 265.197 130.183,265.084 128.908,264.999 128.083 C 264.915 127.258,264.800 125.983,264.745 125.250 C 264.690 124.517,264.542 122.829,264.417 121.500 C 264.292 120.171,264.108 118.108,264.007 116.917 C 263.907 115.725,263.672 113.063,263.485 111.000 C 263.298 108.938,263.039 106.013,262.909 104.500 C 262.675 101.764,262.336 97.895,261.998 94.082 C 261.900 92.983,261.677 90.433,261.503 88.417 C 261.329 86.400,260.958 82.237,260.678 79.167 C 260.109 72.908,259.412 64.993,259.106 61.299 C 258.994 59.951,258.853 58.798,258.792 58.737 C 258.731 58.676,256.934 59.640,254.799 60.879 C 252.664 62.119,250.467 63.376,249.917 63.674 C 249.367 63.971,248.842 64.271,248.750 64.339 C 248.658 64.407,247.608 65.023,246.417 65.708 C 245.225 66.393,243.050 67.650,241.583 68.503 C 240.117 69.355,238.585 70.238,238.179 70.464 C 237.774 70.691,234.399 72.639,230.679 74.792 C 226.960 76.946,223.542 78.913,223.083 79.164 C 222.625 79.415,221.547 80.044,220.687 80.560 C 219.827 81.077,219.095 81.500,219.059 81.500 C 219.023 81.500,218.714 81.676,218.372 81.890 C 218.030 82.105,217.338 82.510,216.833 82.791 C 216.329 83.071,214.529 84.104,212.833 85.086 C 206.691 88.642,204.212 90.075,202.167 91.251 C 201.021 91.910,198.621 93.297,196.833 94.332 C 195.046 95.367,193.021 96.535,192.333 96.928 L 191.083 97.643 191.000 52.280 C 190.954 27.330,190.868 6.992,190.810 7.083 M180.667 84.493 L 180.667 103.653 179.875 104.106 C 179.440 104.355,178.558 104.872,177.917 105.255 C 177.275 105.638,174.987 106.965,172.833 108.203 C 164.753 112.850,163.578 113.533,163.371 113.705 C 162.824 114.158,163.027 113.410,164.422 109.833 C 164.547 109.513,164.850 108.688,165.095 108.000 C 165.340 107.313,165.785 106.075,166.084 105.250 C 166.383 104.425,167.727 100.712,169.071 97.000 C 170.416 93.287,171.632 89.950,171.775 89.583 C 172.143 88.637,173.956 83.669,174.511 82.083 C 174.768 81.350,175.216 80.112,175.505 79.333 C 175.794 78.554,176.356 77.017,176.753 75.917 C 177.150 74.817,177.899 72.754,178.416 71.333 C 178.934 69.912,179.632 67.981,179.968 67.042 C 180.304 66.102,180.599 65.333,180.623 65.333 C 180.647 65.333,180.667 73.955,180.667 84.493 M250.064 76.458 C 250.116 76.894,250.203 77.850,250.258 78.583 C 250.313 79.317,250.465 81.042,250.595 82.417 C 250.725 83.792,250.942 86.192,251.077 87.750 C 251.297 90.298,251.658 94.389,252.164 100.083 C 252.262 101.183,252.453 103.433,252.589 105.083 C 252.725 106.733,252.911 108.796,253.002 109.667 C 253.093 110.537,253.279 112.563,253.414 114.167 C 253.550 115.771,253.738 117.946,253.831 119.000 C 253.924 120.054,254.078 121.817,254.174 122.917 C 254.270 124.017,254.458 126.117,254.592 127.583 C 254.726 129.050,255.172 134.075,255.583 138.750 C 255.995 143.425,256.408 148.112,256.502 149.167 C 256.834 152.913,257.333 158.598,257.415 159.583 C 257.461 160.133,257.543 161.035,257.598 161.587 L 257.697 162.591 255.235 164.671 C 253.881 165.814,251.718 167.641,250.428 168.731 C 249.139 169.820,247.532 171.170,246.858 171.731 C 246.184 172.291,244.272 173.903,242.608 175.311 C 240.944 176.720,238.496 178.783,237.168 179.895 C 234.393 182.218,234.366 182.241,232.573 183.770 C 231.834 184.401,230.863 185.217,230.415 185.583 C 229.968 185.950,229.335 186.483,229.009 186.769 C 228.683 187.054,226.392 188.988,223.917 191.068 L 219.417 194.848 219.374 176.662 L 219.332 158.477 218.776 158.947 C 218.470 159.205,217.551 159.976,216.735 160.659 C 215.918 161.343,215.213 161.946,215.167 161.998 C 215.121 162.051,214.858 162.267,214.583 162.478 C 214.308 162.688,213.821 163.100,213.500 163.393 C 213.179 163.686,210.300 166.136,207.101 168.838 C 203.903 171.539,200.715 174.233,200.018 174.824 C 196.378 177.906,191.719 181.817,191.292 182.148 C 191.014 182.363,191.000 180.616,191.002 145.979 L 191.005 109.583 193.294 108.286 C 194.553 107.573,196.296 106.573,197.167 106.064 C 198.037 105.555,199.050 104.969,199.417 104.762 C 199.783 104.554,201.546 103.537,203.333 102.500 C 206.895 100.434,212.261 97.345,215.000 95.784 C 217.319 94.461,221.540 91.994,221.750 91.838 C 221.842 91.770,222.329 91.489,222.833 91.213 C 224.232 90.448,226.837 88.954,232.547 85.640 C 235.409 83.980,239.512 81.608,241.667 80.370 C 243.821 79.131,245.808 77.988,246.083 77.829 C 246.358 77.671,247.071 77.260,247.667 76.916 C 248.262 76.573,248.975 76.157,249.250 75.991 C 249.950 75.570,249.958 75.575,250.064 76.458 M180.625 153.449 L 180.583 191.231 177.000 194.293 C 174.008 196.850,170.651 199.696,165.845 203.750 C 165.411 204.117,164.568 204.829,163.972 205.333 C 163.376 205.838,160.495 208.271,157.569 210.740 C 154.644 213.210,152.212 215.272,152.167 215.324 C 152.121 215.375,151.633 215.790,151.083 216.246 C 150.533 216.703,150.046 217.116,150.000 217.165 C 149.954 217.214,149.504 217.590,149.000 218.000 C 148.496 218.410,148.046 218.785,148.000 218.834 C 147.779 219.071,141.332 224.500,141.272 224.500 C 141.137 224.500,140.432 217.337,139.836 209.917 C 139.662 207.747,139.557 206.571,139.413 205.167 C 139.370 204.754,139.185 202.617,139.001 200.417 C 138.816 198.217,138.592 195.704,138.503 194.833 C 138.413 193.963,138.264 192.336,138.171 191.219 C 138.078 190.102,137.887 187.983,137.746 186.510 L 137.490 183.833 138.318 181.542 C 138.773 180.281,139.982 176.963,141.005 174.167 C 143.655 166.923,144.154 165.543,144.530 164.426 C 144.713 163.880,145.080 162.887,145.346 162.218 C 145.612 161.549,145.987 160.532,146.180 159.959 C 146.373 159.386,147.381 156.592,148.420 153.750 C 149.459 150.908,150.812 147.196,151.426 145.500 C 152.040 143.804,152.725 141.929,152.948 141.333 C 153.172 140.737,153.454 139.950,153.576 139.583 C 153.698 139.217,154.036 138.279,154.327 137.500 C 154.816 136.193,155.559 134.153,156.892 130.466 L 157.417 129.015 163.561 125.466 C 172.618 120.235,174.953 118.890,175.197 118.767 C 175.318 118.706,176.542 117.991,177.917 117.179 C 179.292 116.367,180.473 115.694,180.542 115.685 C 180.611 115.675,180.648 132.669,180.625 153.449 M142.827 138.958 C 142.472 139.944,141.850 141.650,141.446 142.750 C 140.703 144.772,138.510 150.783,137.341 154.000 C 136.991 154.962,136.419 156.553,136.068 157.535 C 135.718 158.517,135.412 159.301,135.389 159.277 C 135.365 159.254,135.231 157.813,135.090 156.076 C 134.950 154.338,134.800 152.692,134.757 152.417 C 134.714 152.142,134.635 151.354,134.583 150.667 C 134.530 149.979,134.456 149.192,134.417 148.917 C 134.379 148.642,134.300 147.704,134.241 146.833 C 134.183 145.962,134.081 144.661,134.016 143.941 C 133.906 142.731,133.922 142.617,134.240 142.423 C 135.337 141.753,137.186 140.667,137.231 140.667 C 137.259 140.667,138.625 139.880,140.266 138.918 C 141.907 137.955,143.301 137.168,143.362 137.168 C 143.424 137.167,143.183 137.973,142.827 138.958 M285.007 154.208 C 284.748 154.965,283.965 157.132,283.268 159.025 C 282.571 160.918,282.000 162.519,282.000 162.583 C 282.000 162.647,281.889 162.936,281.753 163.225 C 281.617 163.514,281.399 164.087,281.268 164.500 C 281.137 164.912,280.490 166.712,279.831 168.500 C 278.478 172.169,278.129 173.128,276.095 178.750 C 275.299 180.950,274.269 183.762,273.806 185.000 C 272.978 187.215,271.216 192.138,271.047 192.708 C 270.863 193.332,270.710 192.943,270.621 191.625 C 270.535 190.341,270.304 187.740,269.509 179.083 C 269.332 177.158,269.019 173.655,268.814 171.297 L 268.440 167.012 268.925 166.631 C 269.436 166.229,274.729 161.773,275.585 161.023 C 275.861 160.781,276.761 160.023,277.585 159.338 C 278.409 158.653,279.165 158.015,279.264 157.921 C 279.364 157.827,279.758 157.496,280.141 157.186 C 280.523 156.875,281.829 155.772,283.043 154.733 C 285.686 152.473,285.594 152.498,285.007 154.208 M259.327 181.250 C 260.026 189.063,260.351 192.649,260.587 195.167 C 260.719 196.588,260.945 199.213,261.088 201.000 C 261.231 202.787,261.453 205.300,261.580 206.583 C 261.708 207.867,261.864 209.629,261.926 210.500 C 261.988 211.371,262.130 213.021,262.241 214.167 L 262.442 216.250 260.709 221.000 C 259.756 223.612,258.485 227.100,257.885 228.750 C 257.285 230.400,256.535 232.463,256.218 233.333 C 255.902 234.204,255.582 235.104,255.509 235.333 C 255.435 235.563,255.146 236.350,254.866 237.083 C 254.229 238.750,252.901 242.399,252.409 243.833 C 252.204 244.429,251.685 245.854,251.254 247.000 C 250.823 248.146,250.257 249.683,249.996 250.417 C 249.425 252.021,248.957 253.312,246.434 260.250 C 245.367 263.183,244.277 266.183,244.010 266.917 C 243.744 267.650,243.470 268.400,243.403 268.583 C 243.335 268.767,243.117 269.367,242.919 269.917 L 242.559 270.917 237.654 273.763 C 233.872 275.959,220.151 283.891,219.458 284.282 C 219.390 284.321,219.333 267.263,219.333 246.374 L 219.333 208.395 222.042 206.129 C 226.572 202.337,230.132 199.345,232.583 197.269 C 233.867 196.182,235.509 194.796,236.232 194.188 C 236.956 193.580,237.631 193.006,237.732 192.912 C 237.834 192.818,239.529 191.397,241.500 189.755 C 243.471 188.113,245.121 186.723,245.167 186.666 C 245.213 186.609,247.762 184.454,250.833 181.879 C 253.904 179.303,256.942 176.750,257.583 176.206 L 258.750 175.215 258.867 176.316 C 258.931 176.921,259.138 179.142,259.327 181.250 M209.000 192.230 L 209.000 203.626 205.471 206.605 C 203.531 208.243,201.674 209.808,201.347 210.083 C 201.019 210.358,198.591 212.402,195.953 214.625 C 193.314 216.848,191.120 218.667,191.078 218.667 C 191.035 218.667,191.004 213.548,191.009 207.292 L 191.017 195.917 192.040 195.083 C 192.603 194.625,194.387 193.125,196.005 191.750 C 200.005 188.350,203.740 185.187,205.656 183.578 C 206.533 182.842,207.438 182.079,207.667 181.883 C 208.300 181.340,208.912 180.845,208.958 180.839 C 208.981 180.836,209.000 185.962,209.000 192.230 M181.500 240.325 C 182.971 239.068,191.601 231.777,192.583 230.960 C 193.133 230.503,193.771 229.969,194.001 229.773 C 194.230 229.577,194.868 229.042,195.417 228.583 C 195.967 228.125,196.454 227.710,196.500 227.662 C 196.546 227.613,197.746 226.602,199.167 225.415 C 200.588 224.228,203.025 222.177,204.583 220.857 C 206.142 219.536,207.754 218.171,208.167 217.822 L 208.917 217.187 208.959 253.710 C 208.982 273.797,208.944 290.288,208.875 290.357 C 208.806 290.425,208.075 290.872,207.250 291.350 C 203.871 293.308,201.596 294.618,198.750 296.247 C 197.100 297.191,194.887 298.468,193.833 299.084 C 192.779 299.701,190.342 301.105,188.417 302.204 C 186.492 303.304,184.450 304.495,183.879 304.852 C 183.308 305.208,182.805 305.500,182.760 305.500 C 182.691 305.500,179.215 307.494,175.500 309.664 C 174.212 310.417,170.938 312.313,168.500 313.719 C 167.537 314.274,166.225 315.039,165.583 315.419 C 164.942 315.800,163.929 316.379,163.333 316.706 C 162.737 317.033,161.387 317.805,160.333 318.420 C 155.473 321.255,150.379 324.149,150.164 324.197 C 149.974 324.239,149.887 323.769,149.727 321.833 C 149.617 320.504,149.372 317.692,149.181 315.583 C 148.991 313.475,148.648 309.537,148.420 306.833 C 148.192 304.129,147.964 301.579,147.913 301.167 C 147.863 300.754,147.677 298.729,147.499 296.667 C 147.322 294.604,147.023 291.192,146.836 289.083 C 146.648 286.975,146.307 283.075,146.079 280.417 C 145.850 277.758,145.554 274.458,145.420 273.083 C 145.287 271.708,145.135 269.946,145.083 269.167 C 145.031 268.387,144.957 267.525,144.918 267.250 C 144.878 266.975,144.806 266.262,144.756 265.667 C 144.526 262.897,144.007 257.042,143.913 256.167 C 143.879 255.846,143.769 254.533,143.668 253.250 C 143.508 251.197,143.286 248.743,142.668 242.167 C 142.578 241.204,142.456 239.699,142.397 238.822 L 142.291 237.226 145.520 234.488 C 147.296 232.982,148.932 231.600,149.156 231.417 C 149.380 231.233,149.868 230.816,150.240 230.490 C 150.612 230.164,152.597 228.476,154.650 226.740 C 158.764 223.261,160.469 221.819,164.923 218.051 C 166.570 216.658,170.767 213.112,174.250 210.171 L 180.583 204.825 180.667 222.895 L 180.750 240.965 181.500 240.325 M129.406 209.083 C 129.470 210.092,129.551 211.142,129.588 211.417 C 129.625 211.692,129.772 213.304,129.917 215.000 C 130.061 216.696,130.328 219.696,130.509 221.667 C 130.864 225.502,130.927 226.221,131.082 228.167 C 131.137 228.854,131.259 230.166,131.353 231.081 L 131.525 232.745 130.968 233.248 C 130.661 233.524,129.999 234.098,129.497 234.523 C 128.994 234.948,127.796 235.963,126.833 236.779 C 125.871 237.595,122.677 240.293,119.735 242.775 L 114.388 247.288 115.373 244.602 C 115.915 243.125,116.422 241.729,116.499 241.500 C 116.576 241.271,116.915 240.333,117.252 239.417 C 117.589 238.500,117.928 237.563,118.004 237.333 C 118.080 237.104,118.364 236.317,118.634 235.583 C 118.905 234.850,119.591 232.975,120.159 231.417 C 120.726 229.858,121.481 227.796,121.837 226.833 C 122.546 224.914,125.874 215.748,126.345 214.417 C 126.507 213.958,126.916 212.833,127.252 211.917 C 127.589 211.000,128.138 209.485,128.472 208.550 C 129.178 206.577,129.252 206.619,129.406 209.083 M265.168 247.000 C 265.698 253.120,265.993 256.710,265.997 257.089 C 266.000 257.438,265.761 257.587,259.009 261.447 C 256.195 263.055,256.364 263.059,256.984 261.399 C 257.441 260.174,258.335 257.722,259.256 255.167 C 259.471 254.571,260.147 252.733,260.758 251.083 C 261.370 249.433,262.246 247.033,262.705 245.750 C 263.164 244.467,263.723 242.929,263.947 242.333 C 264.170 241.737,264.403 241.100,264.464 240.917 C 264.590 240.534,264.658 241.120,265.168 247.000 M236.816 286.625 C 236.719 286.877,236.000 288.846,235.219 291.000 C 234.438 293.154,233.538 295.629,233.220 296.500 C 232.903 297.371,232.471 298.571,232.261 299.167 C 231.767 300.569,229.139 307.809,228.420 309.750 C 228.114 310.575,227.562 312.075,227.193 313.083 C 226.824 314.092,225.947 316.492,225.243 318.417 C 224.539 320.342,223.903 322.104,223.830 322.333 C 223.756 322.563,223.459 323.387,223.169 324.167 C 222.879 324.946,222.003 327.346,221.223 329.500 C 220.443 331.654,219.704 333.679,219.581 334.000 C 219.391 334.494,219.355 331.653,219.346 315.417 L 219.334 296.250 221.876 294.806 C 223.273 294.012,225.542 292.709,226.917 291.909 C 228.292 291.110,229.754 290.266,230.167 290.034 C 230.579 289.801,232.229 288.839,233.833 287.896 C 237.101 285.975,237.058 285.993,236.816 286.625 " stroke="none" fill="#FFFFFF" fill-rule="evenodd"></path></g></svg>